<?xml version="1.0" encoding="UTF-8"?>
<svg id="Layer_2" data-name="Layer 2" xmlns="http://www.w3.org/2000/svg" viewBox="0 0 317.07 317.07">
  <defs>
    <style>
      .cls-1 {
        fill: none;
        stroke: #000;
        stroke-miterlimit: 10;
      }

      .cls-2 {
        fill: #b82927;
      }

      .cls-2, .cls-3 {
        stroke-width: 0px;
      }

      .cls-3, .cls-4, .cls-5 {
        fill: #fff;
      }

      .cls-4 {
        font-family: Bahnschrift-Bold, Bahnschrift;
        font-size: 32.72px;
        font-variation-settings: 'wght' 700, 'wdth' 100;
      }

      .cls-4, .cls-5 {
        font-weight: 700;
      }

      .cls-5 {
        font-family: Rockwell-ExtraBold, 'Rockwell Extra Bold';
        font-size: 12px;
      }
    </style>
  </defs>
  <g id="Layer_2-2" data-name="Layer 2">
    <path class="cls-2" d="M93.3,302.13c-1.44-2.15-3.1-4.64-4.37-6.53s-3.34-2.97-5.58-2.97h-7.86c-2.66,0-5.07-1.57-6.14-4s-2.25-5.11-3.17-7.19-2.76-3.51-4.97-3.9-5.2-.92-7.75-1.37-4.71-2.43-5.35-5.01l-1.87-7.63c-.53-2.18-2.12-3.94-4.22-4.71l-7.38-2.69c-2.5-.91-4.23-3.21-4.4-5.86s-.37-5.57-.52-7.84-1.4-4.24-3.34-5.36-4.57-2.64-6.81-3.93-3.6-3.89-3.31-6.54l.85-7.81c.24-2.23-.64-4.43-2.36-5.87l-6.02-5.05c-2.04-1.71-2.88-4.46-2.13-7.01s1.56-5.36,2.19-7.55.14-4.46-1.3-6.18-3.39-4.05-5.06-6.03-2.05-4.89-.88-7.27l3.47-7.05c.99-2.01.91-4.37-.21-6.31s-2.64-4.57-3.93-6.81-1.17-5.17.4-7.32l4.64-6.34c1.32-1.81,1.66-4.15.89-6.25s-1.81-4.96-2.69-7.39-.26-5.29,1.66-7.14l5.67-5.44c1.62-1.55,2.35-3.8,1.97-6s-.92-5.2-1.37-7.75.67-5.26,2.88-6.74l6.53-4.37c1.86-1.25,2.98-3.33,2.98-5.57s0-5.28,0-7.87,1.57-5.06,4-6.14l7.19-3.17c2.05-.9,3.51-2.76,3.9-4.97s.92-5.2,1.37-7.75,2.43-4.71,5.01-5.35l7.63-1.87c2.18-.53,3.94-2.12,4.71-4.22l2.69-7.38c.91-2.5,3.21-4.23,5.86-4.4s5.57-.37,7.84-.52,4.24-1.4,5.36-3.34l3.93-6.8c1.33-2.3,3.89-3.61,6.54-3.32s5.55.6,7.82.85,4.42-.64,5.86-2.35,3.39-4.04,5.06-6.03,4.46-2.87,7.01-2.13l7.54,2.19c2.15.62,4.47.14,6.19-1.3l6.02-5.05c2.04-1.71,4.89-2.06,7.28-.88s5.01,2.47,7.05,3.47,4.37.91,6.31-.21,4.57-2.64,6.81-3.93,5.17-1.17,7.32.4l6.34,4.64c1.81,1.32,4.16,1.66,6.26.89l7.38-2.69c2.5-.91,5.3-.26,7.14,1.66s3.86,4.03,5.44,5.68,3.8,2.35,6.01,1.96l7.74-1.36c2.62-.46,5.26.66,6.74,2.87s3.1,4.64,4.37,6.53,3.34,2.97,5.58,2.97h7.86c2.66,0,5.07,1.57,6.14,4s2.25,5.11,3.17,7.19,2.77,3.51,4.97,3.9l7.74,1.36c2.62.46,4.72,2.42,5.35,5.01s1.33,5.42,1.87,7.63,2.12,3.94,4.22,4.7l7.38,2.69c2.5.91,4.23,3.21,4.4,5.86s.37,5.57.52,7.84,1.4,4.24,3.34,5.36l6.8,3.93c2.3,1.33,3.61,3.89,3.32,6.54s-.6,5.55-.85,7.82.64,4.42,2.36,5.86l6.02,5.05c2.04,1.71,2.88,4.46,2.13,7.01s-1.56,5.36-2.19,7.55-.13,4.47,1.31,6.18l5.05,6.02c1.71,2.04,2.06,4.89.88,7.28s-2.47,5.01-3.47,7.05-.91,4.38.21,6.32l3.93,6.8c1.33,2.3,1.18,5.17-.39,7.32s-3.3,4.5-4.64,6.34-1.66,4.15-.89,6.25,1.81,4.96,2.69,7.39.26,5.29-1.66,7.14l-5.67,5.44c-1.62,1.55-2.35,3.8-1.97,6s.92,5.2,1.37,7.75-.67,5.26-2.88,6.74l-6.53,4.37c-1.86,1.25-2.98,3.33-2.98,5.57s0,5.28,0,7.87-1.57,5.06-4,6.14l-7.19,3.17c-2.05.9-3.51,2.77-3.9,4.98l-1.36,7.74c-.46,2.62-2.42,4.72-5.01,5.35s-5.42,1.33-7.63,1.87-3.94,2.12-4.7,4.22l-2.69,7.38c-.91,2.5-3.21,4.23-5.86,4.4s-5.57.37-7.84.52-4.24,1.4-5.36,3.34l-3.93,6.8c-1.33,2.3-3.89,3.61-6.54,3.32s-5.55-.6-7.82-.85-4.42.64-5.86,2.36l-5.05,6.02c-1.71,2.04-4.46,2.88-7.01,2.13s-5.36-1.56-7.55-2.19-4.47-.13-6.18,1.31l-6.02,5.05c-2.04,1.71-4.89,2.06-7.28.88s-5.01-2.47-7.05-3.47-4.38-.91-6.32.21l-6.8,3.93c-2.3,1.33-5.17,1.18-7.32-.39s-4.5-3.3-6.34-4.64-4.15-1.65-6.26-.89l-7.38,2.69c-2.5.91-5.3.26-7.14-1.66s-3.86-4.03-5.44-5.68-3.8-2.35-6.01-1.96l-7.74,1.36c-2.62.46-5.26-.66-6.74-2.87Z"/>
    <path class="cls-3" d="M146.17,265.52s4.24,3.31,7.26,5.68l-2.54,8.86s4.46-3.01,7.64-5.15l7.64,5.15-2.54-8.86c3.03-2.36,7.26-5.67,7.26-5.67l-9.21-.32c-1.31-3.61-3.15-8.66-3.15-8.66,0,0-1.84,5.06-3.15,8.66-3.79.13-9.08.31-9.21.32Z"/>
    <path class="cls-3" d="M24.34,197.55c-1.82-6.11-3.23-12.4-4.21-18.83,3.16,2.86,7.62,6.88,11.18,10.1,14.02,57.25,65.66,99.72,127.23,99.72,72.35,0,131-58.66,131-131,0-8.68-.84-17.15-2.45-25.36,1.92-1.93,5.37-5.38,7.56-7.57,2.55,10.56,3.89,21.58,3.89,32.93,0,77.32-62.68,140-140,140-63.42,0-116.98-42.16-134.2-99.99Z"/>
    <path class="cls-3" d="M41.22,81.09c24.99-38.26,68.2-63.55,117.32-63.55,46.58,0,87.85,22.75,113.3,57.75-2.77.99-6.62,2.36-8.86,3.17-23.92-31.54-61.8-51.92-104.44-51.92s-84.18,22.39-107.83,56.57h-10.78c.43-.68.86-1.35,1.29-2.02Z"/>
    <path class="cls-3" d="M26.15,110.11s13-3,7,9-11,52-11,52c0,0,6,10,12,8s6-9,6-9l2-21,1-10s-2-3,18-4c0,0,8-3,5-14l-17,2,2-16,33-4s7,2,2-13l-59,3s-8,7,0,10c0,0-3,7-1,7Z"/>
    <path class="cls-3" d="M74.3,155.16c-.11-.04-.21-.09-.29-.16-1.19-.96-9.22-8.39-.86-27.89,7.81-18.23,19.4-16.11,22.31-15.24.41.12.8.31,1.15.55l1.16.77c.89.59,1.95.84,3.01.71l3.9-.49c1.53-.19,3.05.43,4.01,1.63l.85,1.06c1.01,1.27,1.4,2.92,1.05,4.51l-1.44,6.5s-3,11,2,14c4.19,2.51,6.97-23.02,7.77-31.39.13-1.38,1.45-2.33,2.8-2.01l6.53.88c2.09.28,3.49,2.31,3.01,4.37l-3.1,13.16s0,5.55,9.8-13.62c.87-1.71,2.61-2.81,4.53-2.86,4.43-.12,11.01,1.97,4.67,17.48,0,0-.93,7.46,11.62-20.87.92-2.09,2.86-3.56,5.12-3.86,5.74-.77,15.25-.41,7.3,12.66-.02.04-.04.08-.06.12-.53,1.35-9.93,25.37.05,19.19,1.77-1.1,2.88-3,3.06-5.07.41-4.74,2.37-15.13,11.12-28.53,1.08-1.66,2.94-2.65,4.91-2.65h4.93c1.95,0,3.89-.37,5.7-1.1l2.26-.9s0,0,0,0c0,0,8,0,10,5s-1.85,21.35-7.66,25.76c-.24.18-.38.45-.36.75.1.98.99,2.85,6.88.77,1.88-.66,3.18-2.39,3.35-4.37.52-6.28,2.15-20.85,6.63-31.54.1-.24.29-.42.54-.5,1.67-.53,8.4-2.35,13.61,1.13,0,0,0,0,0,0,0,.04-8,29.99-8,30,0,0,0,0,0,0,0,0,1,9,8-1,6.27-8.95,6.12-23.51,6.02-26.47-.01-.35.18-.66.49-.81,1.81-.91,8.13-3.41,13.18,2.87.2.25.25.58.13.88-1.91,4.79-17.21,43.98,8.19,3.53h0s1-14,1-14c0,0,0,0,0,0,0,0,10-9,16-2,0,0,0,0,0,0,0,.01,0,15.98,0,16,0,0,0,0,0,0,.01,0,4.94,1.98,6.96,8.87.02.09.04.18.04.26v6.87s0,0,0,0c0,.01-12,14-21,14,0,0-8,2-9-5,0,0,0-11.85-3.93-4.15l-.19.25-10.88,9.89s-3.55,2.66-4.8-3.72c-.12-.61-.8-.92-1.32-.6l-11.88,7.31s0,0,0,0c0,0-5.53.92-9.51-4.31-.27-.36-.77-.48-1.15-.25-1.6.96-6.03,3.04-12.85,1.66-.3-.06-.6.03-.81.25-2.35,2.47-16.83,16.77-26.06,4.51-.33-.43-.97-.45-1.34-.05-3.79,4.13-21.04,21.43-18.48-8.65.07-.82-.91-1.28-1.5-.7-2.52,2.53-7.26,8.77-10.13,21.77-.1.44-.51.75-.96.69-3.15-.41-14.36-2.68-9.22-13.88.01-.02.02-.05.03-.07.34-1.03,7.68-23.32-3.93-.12l-.19.26c-.81.75-5.82,5.8-7.76,18.06-.07.46-.49.8-.96.75l-7.38-.82c-.44-.05-.78-.43-.78-.87v-5.9c0-.78-.93-1.17-1.49-.63-2.52,2.45-7.99,6.11-14.51.31,0,0,0,0,0,0-.02.02-6,7-6,7,0,0,0,0,0,0,0,0-6.92,2.97-15.85.05Z"/>
    <ellipse class="cls-2" cx="90.74" cy="132.22" rx="14.92" ry="4.48" transform="translate(-61.33 183.14) rotate(-74.05)"/>
    <path class="cls-2" d="M195.15,107.11s-2.57,16.28,1.01,21.08c.51.69.59,1.59.11,2.3-2.13,3.15-7.53,9.78-9.13-1.38-2-14,8-22,8-22"/>
    <path class="cls-2" d="M202.15,120.74v-13.63s7.88-.99.17,13.67c-.04.08-.17.06-.17-.04Z"/>
    <path class="cls-2" d="M272.74,109.91c.26.75.59,1.47.97,2.16,1.71,3.11,6.02,12.56-6.56,10.04,0,0-2.9,0-1.1-4.75.03-.08.06-.17.1-.25,2-5-2-5-2-5,0,0-1,0,1-3s2.94-12.44,7.59.8Z"/>
    <path class="cls-3" d="M53.15,164.11s64-27,66,14-33,53-33,53c0,0-11,2-14-1,0,0-2-1-4,3s-15-1-12-11,6-36,11-44-6-5-6-5c0,0-12,8-8-3v-6Z"/>
    <path class="cls-2" d="M74.15,221.11s.42-36.72,7.47-46.56c.99-1.38,1.3-3.09.98-4.75-.48-2.53.39-5.57,8.55-3.68,13,3,9,2,9,2,0,0,10,0,3,22s-9,21-9,21c0,0-10,14-20,10Z"/>
    <ellipse class="cls-1" cx="140.04" cy="186.45" rx="15.46" ry="4.11" transform="translate(-80.85 261.15) rotate(-71.77)"/>
    <path class="cls-3" d="M154.7,170.43c-1.51-.19-2.95-.69-4.25-1.48-4.59-2.76-17.59-8.09-27.3,12.16-11.11,23.14,2.63,30,4.74,30.9.18.08.36.13.55.15,1.52.21,8.71.63,15.54-8.41.68-.9,1.88-1.22,2.9-.75,1.89.88,5.08,2.1,8.27,2.1,2.33,0,4.01-1.31,5.14-2.7.98-1.21,2.82-1.19,3.75.05,2.98,3.96,9.62,8.27,20.85-6.64.7-.92,1.95-1.23,2.98-.7,2.61,1.37,7.61,3.28,10.85.02.88-.89,2.28-1.02,3.24-.22,3.85,3.21,13.79,8.42,29.46-4.49,1.46-1.2,3.68-.27,3.85,1.61.74,8.04,4.73,21.3,24.58,2.36.17-.16.36-.3.57-.4,1.85-.89,12.26-7.31-1.99-34.36-.18-.34-.28-.72-.28-1.11v-5.93c0-.32.06-.63.18-.92.9-2.17,4.33-11.66-6.93-5.71-.16.08-.33.15-.5.2-1.48.41-9.1,3.12-6.93,15.05.1.58.01,1.17-.29,1.67-3.25,5.45-22.81,37.01-31.23,22.77-.21-.35-.31-.77-.31-1.18h0c0-1.31,1.06-2.37,2.37-2.37h6.07c.38,0,.75-.09,1.09-.26,3.56-1.82,23.27-12.97,7.16-29.06-.44-.44-1.04-.68-1.67-.68h-8.03s-20.67-1.97-20.02,35.11c.01.6-.2,1.18-.59,1.63-1.45,1.63-5.16,5.14-7.64,1.62-.52-.73-.54-1.71-.1-2.49,2.88-5.13,14-26.12,4.35-27.87,0,0-9-3-9,10s-5.43,22.92-5.96,23.92c-.03.06-.05.1-.09.15-.9,1.41-14.26,21.83-1.29-27.8.22-.85-.04-1.75-.68-2.35-3.4-3.18-14.32-9.95-16.94,31.26-.04.56-.26,1.09-.65,1.5-1.97,2.04-7.69,6.24-.99-23.12.31-1.37-.62-2.72-2.02-2.89l-2.83-.35Z"/>
    <path class="cls-2" d="M214.15,176.11s6,3,10-7-3-11-3-11l-7,18Z"/>
    <path class="cls-2" d="M242.71,175.07l4.35-7.97c.36-.65,1.34-.49,1.46.25l2.62,15.69s.01.09.01.14c-.02.85-.33,9.32-6.59,5.21-.25-.16-.38-.46-.34-.76.28-2.1,1.26-10.53-1.16-11.49-.41-.16-.55-.68-.34-1.07Z"/>
    <path class="cls-3" d="M233.15,140.11s10-11,9,2-5,11-5,11c0,0-2,3,0-8,0,0-5-2-4-5Z"/>
    <path class="cls-3" d="M138.15,71.11l-1.73-3.46c-.13-.25.06-.54.34-.54h2.16c.14,0,.27-.08.34-.21l.66-1.33c.11-.23.42-.28.6-.1l1.5,1.5c.09.09.2.13.32.11,2.55-.4,31.04-4.75,35.82.03s1.57,12.62,1.07,13.84c-.04.1-.04.21.02.31.46.86,2.61,5.36-.08,9.85,0,0-2.98,1.99-1.02-2.95.01-.03.02-.06.02-.09.07-.63.77-7.69-4.01-1.96s-5,3-5,3l2.96-3.94s.05-.08.06-.13c.16-.68.79-5.68-15.79-2.96-.14.02-.26.12-.3.26-.33,1.06-1.71,5.76-1.02,8.48.05.18-.03.36-.2.43-.9.39-3.54,1.37-2.71-1.13,1-3,0-3,0-3l-2,3s-2.98,2.98-.03-5.92c.02-.06.03-.12.01-.19-.09-.54-.9-2.89-7.99-2.89-8,0-9-5-9-5,0,0-.98-1.96,3.84-2,.1,0,.2-.04.27-.12.41-.44,1.75-2.03.89-2.88Z"/>
    <text class="cls-5" transform="translate(78.11 81.97) rotate(-44.8)"><tspan x="0" y="0">A</tspan></text>
    <text class="cls-5" transform="translate(84.37 75.61) rotate(-39.06)"><tspan x="0" y="0">M</tspan></text>
    <text class="cls-5" transform="translate(94.57 67.45) rotate(-33.33)"><tspan x="0" y="0">E</tspan></text>
    <text class="cls-5" transform="translate(101.94 62.56) rotate(-28.36)"><tspan x="0" y="0">R</tspan></text>
    <text class="cls-5" transform="translate(110.86 57.84) rotate(-24.28)"><tspan x="0" y="0">I</tspan></text>
    <text class="cls-5" transform="translate(115.73 55.56) rotate(-20.35)"><tspan x="0" y="0">C</tspan></text>
    <text class="cls-5" transform="translate(124.36 52.35) rotate(-15.61)"><tspan x="0" y="0">A</tspan></text>
    <text class="cls-5" transform="translate(133.03 49.99) rotate(-12.01)"><tspan x="0" y="0">’</tspan></text>
    <text class="cls-5" transform="translate(137.59 48.98) rotate(-8.82)"><tspan x="0" y="0">S</tspan></text>
    <text class="cls-5" transform="translate(144.91 47.9) rotate(-6.12)"><tspan x="0" y="0"> </tspan></text>
    <text class="cls-5" transform="translate(147.77 47.52) rotate(-3.17)"><tspan x="0" y="0">F</tspan></text>
    <text class="cls-5" transform="translate(155.39 47.05) rotate(.93)"><tspan x="0" y="0">A</tspan></text>
    <text class="cls-5" transform="translate(163.69 47.16) rotate(5.21)"><tspan x="0" y="0">V</tspan></text>
    <text class="cls-5" transform="translate(172.1 47.87) rotate(10)"><tspan x="0" y="0">O</tspan></text>
    <text class="cls-5" transform="translate(182.16 49.64) rotate(15.36)"><tspan x="0" y="0">R</tspan></text>
    <text class="cls-5" transform="translate(191.86 52.39) rotate(19.45)"><tspan x="0" y="0">I</tspan></text>
    <text class="cls-5" transform="translate(196.96 54.12) rotate(23.22)"><tspan x="0" y="0">T</tspan></text>
    <text class="cls-5" transform="translate(205.07 57.6) rotate(27.88)"><tspan x="0" y="0">E</tspan></text>
    <text class="cls-5" transform="translate(212.89 61.82) rotate(30.98)"><tspan x="0" y="0"> </tspan></text>
    <text class="cls-5" transform="translate(215.44 63.22) rotate(34.41)"><tspan x="0" y="0">B</tspan></text>
    <text class="cls-5" transform="translate(223.76 68.91) rotate(39.68)"><tspan x="0" y="0">B</tspan></text>
    <text class="cls-5" transform="translate(231.51 75.32) rotate(44.97)"><tspan x="0" y="0">Q</tspan></text>
    <path class="cls-3" d="M95.19,240.11s-28.19,12.47.77,2.66l-.77-2.66Z"/>
    <ellipse class="cls-2" cx="139.98" cy="186.83" rx="15.46" ry="4.11" transform="translate(-81.26 261.36) rotate(-71.77)"/>
    <path class="cls-3" d="M179.18,69.8s7.87,6.67-1.6,3.89l1.6-3.89Z"/>
    <text class="cls-4" transform="translate(94.71 259.54) rotate(-10.58) scale(.87 1)"><tspan x="0" y="0">Q</tspan></text>
    <text class="cls-4" transform="translate(113.06 256.11) rotate(-10.58) scale(.87 1)"><tspan x="0" y="0">U</tspan></text>
    <text class="cls-4" transform="translate(131.08 252.75) rotate(-10.58) scale(.87 1)"><tspan x="0" y="0">I</tspan></text>
    <text class="cls-4" transform="translate(138.76 251.32) rotate(-10.58) scale(.87 1)"><tspan x="0" y="0">C</tspan></text>
    <text class="cls-4" transform="translate(155.74 248.14) rotate(-10.58) scale(.87 1)"><tspan x="0" y="0">K</tspan></text>
    <text class="cls-4" transform="translate(173.65 244.8) rotate(-10.58) scale(.87 1)"><tspan x="0" y="0"> </tspan></text>
    <text class="cls-4" transform="translate(181.13 243.41) rotate(-10.58) scale(.87 1)"><tspan x="0" y="0">‘</tspan></text>
    <text class="cls-4" transform="translate(185.56 242.58) rotate(-10.58) scale(.87 1)"><tspan x="0" y="0">Q</tspan></text>
    <text class="cls-4" transform="translate(203.9 239.15) rotate(-10.58) scale(.87 1)"><tspan x="0" y="0">U</tspan></text>
    <text class="cls-4" transform="translate(221.9 235.79) rotate(-10.58) scale(.87 1)"><tspan x="0" y="0">E</tspan></text>
    <path class="cls-3" d="M98.31,251.21s-23.79,10.47.7,2.68l-.7-2.68Z"/>
    <path class="cls-3" d="M97.46,245.59s-40.36,14.56.76,3.29l-.76-3.29Z"/>
  </g>
</svg>